# xmcd
#
# Track frame offsets:
# 150
# 26957
# 58916
# 92271
# 119934
# 165567
# 210477
# 241366
# 275661
# 295527
#
# Disc length: 4386 seconds
#
#
# Revision: 0
# Processed by: cddbd v1.5.2PL0 Copyright (c) Steve Scherf et al.
# Submitted via: FreeRIP 2.945 
#
DISCID=9311200a
DTITLE=Herriot-J1977 - Wise-Wonderful09
DYEAR=1977
DGENRE=Jungle
TTITLE0=WW 0901
TTITLE1=WW 0902
TTITLE2=WW 0903
TTITLE3=WW 0904
TTITLE4=WW 0905
TTITLE5=WW 0906
TTITLE6=WW 0907
TTITLE7=WW 0908
TTITLE8=WW 0909
TTITLE9=WW 0910
EXTD=All Things Wise and Wonderful 12 CDs\nby James Herriot - read by Christopher Timothy\nRennasance Audio - Jungle Country
EXTT0=
EXTT1=
EXTT2=
EXTT3=
EXTT4=
EXTT5=
EXTT6=
EXTT7=
EXTT8=
EXTT9=
PLAYORDER=
